<?xml version="1.0" ?><svg enable-background="new 0 0 64 64" version="1.1" viewBox="0 0 64 64" xml:space="preserve" xmlns="http://www.w3.org/2000/svg" xmlns:xlink="http://www.w3.org/1999/xlink"><g id="row_4"/><g id="row_3"/><g id="row_2"><g id="eco_x5F_friendly"><g><path d="M29.3,4.1c1,2.2,1.7,6.7,1.7,13.9v36h2V18.7c0-7.8-1.5-12.7-2.6-15.2C29.3,1.2,28.2,1.7,29.3,4.1z" fill="#33691E"/><path d="M35.3,20.2l-0.7-0.7c1.6-1.4,2-4.1,2.5-6.2c0.2-0.7,0.7-1.3,1.3-1.5c1.9-0.7,3.7-1.5,5.4-2.4     c0.4-0.2,0.9-0.3,1.3-0.2c2.5,0.5,4.5,1.5,6.8,1.3c2.9-0.2,3.7,0.8,0.6,1.1c-2.5,0.2-5.1,0.1-7.8-0.4c-1.8,1-3.7,1.8-5.7,2.5     C38.5,16.1,37.1,18.5,35.3,20.2z" fill="#33691E"/><path d="M50.2,10.6c0.8,0,1.5,0,2.2-0.1c-2.9,0.8-5.7,1.7-8.5,2.7c-3.3,1.2-6.1,3.4-8.1,6.3     c-0.2-0.2-0.4-0.2-0.7-0.2c-0.2,0-0.4,0.1-0.6,0.2c1.7-1.6,2.9-3.7,3.5-6c0.1-0.4,0.3-0.6,0.7-0.8c1.9-0.7,3.8-1.5,5.5-2.4     c0.2-0.1,0.5-0.2,0.7-0.1C46.7,10.5,48.4,10.6,50.2,10.6z" fill="#558B2F"/><path d="M33,30h-1c0-3.1,0.8-6.2,2.3-9c0.4-0.7,0.8-1.3,1.2-1.9c2.1-3,5-5.2,8.4-6.4C51.4,10,61,8.5,61,8.5     c-2.9,0.6-5.8,1.6-8.5,2.3c-3,0.8-5.7,1.9-8.3,2.9c-3.2,1.1-5.9,3.2-7.9,6.1c-0.4,0.5-0.8,1.1-1.1,1.8C33.7,24.1,33,27,33,30z" fill="#33691E"/><path d="M52.8,13.9c-2.2,4.2-7.2,6.5-12.3,6.5c-1.5,0-4.7-0.9-4.7-0.9c-0.3-0.7-1.3-0.8-1.9-0.6     c-0.5,0.2-0.9,0.7-0.9,1.4c0,0.6,0.3,1.2,0.7,1.6c0.6-0.8,1-1.8,1.6-1.4c1.4,0.9,3.2,1.9,5.1,1.9c5.7,0,11.1-2.9,13.9-7.5     c1.5-2.5,3.5-5.3,6.5-6.4C61,8.5,54.9,9.9,52.8,13.9z" fill="#689F38"/><path d="M61,8.5c-3,1.2-5.6,3.2-7.3,5.9c-2.7,4.3-7.7,7-13.1,7c-1.9,0-3.4-0.7-4.7-1.9c0,0,0,0,0,0     c2-2.8,4.8-5.1,8.1-6.3c2.8-1,5.6-1.9,8.5-2.7C55.5,10.3,58.3,9.6,61,8.5z" fill="#8BC34A"/><path d="M50.4,10.8c2.8-0.9,7.4-1.9,10.6-2.2C58.3,9.6,56.3,11.9,50.4,10.8z" fill="#558B2F"/><path d="M32.8,29.6c-0.2-1-0.5-1.9-0.8-3c-1.5-4.5-4-8.4-7.4-11.7c-5.5-5.3-12.2-8-20.1-8c0,0-0.7,0-0.7,0     l0.6,0.5c8.9,7.1,16.9,15.3,23.8,24.3h0c0.1,0.1,0.1,0.2,0.2,0.2c0.3,0.3,0.5,0.7,0.7,1c0,0,0,0,0,0c0.2,0.3,0.3,0.5,0.4,0.7     c0.6,0.5,1.8,0.2,2.4-0.5c0.6-0.7,1-1.7,1-2.7C32.9,30.1,32.9,29.9,32.8,29.6z" fill="#689F38"/><path d="M27.7,31C20.8,22.2,13,14.3,4.3,7.3L3.8,6.8C5.6,19.5,15.3,30,28.1,31.6C28.1,31.6,27.9,31.2,27.7,31z" fill="#558B2F"/><path d="M32,42h-1c0-3.5-0.5-6.3-2.2-8.6c-0.6-0.9-1.5-2.1-1.5-2.1c-1.2-1.6-0.4-2.2,0.8-0.6c0,0,0.8,1.1,1.5,2     C31.4,35.2,32,38.2,32,42z M24.8,28.1c-1.3-1.5-2.4-3.2-3.8-4.7c-0.5-0.6-0.1-1,0.5-0.4c1.3,1.5,2.8,2.9,4.1,4.4     C26.3,28.4,25.5,29,24.8,28.1z M19.7,22c-2.7-2.9-5.6-5.8-8.5-8.4c-0.6-0.5-0.3-0.9,0.3-0.4c3,2.7,5.9,5.5,8.6,8.4     C20.6,22.1,20.1,22.5,19.7,22z M8.2,10.9C6.9,9.7,5,8.1,3.8,6.8c0,0,3.4,2.6,4.7,3.7C9.3,11.3,9,11.6,8.2,10.9z" fill="#33691E"/></g><g><path d="M51.1,57.8c0,1.3-1.1,2.4-2.4,2.4c-1.3,0-2.4-1.1-2.4-2.4c0-0.2,0-0.4,0.1-0.5c-0.6,0.7-1.5,1.2-2.5,1.2     c-1.8,0-3.2-1.5-3.2-3.3s1.4-3.3,3.2-3.3s3.2,1.5,3.2,3.3c0,0.3-0.1,0.6-0.2,0.9c0.4-0.5,1.1-0.8,1.8-0.8     C50,55.4,51.1,56.5,51.1,57.8z M34,52.4c-2.1,0-3.9,1.7-3.9,3.9c0,0.1,0,0.2,0,0.3c-0.2-0.1-0.4-0.1-0.6-0.1c-0.1,0-0.2,0-0.2,0     c0-0.1,0-0.3,0-0.4c0-1.8-1.4-3.3-3.2-3.3s-3.2,1.5-3.2,3.3c0,0.9,0.3,1.7,0.9,2.2c-0.2,0.3-0.2,0.6-0.2,1c0,1.1,0.9,2,2,2     s2-0.9,2-2c0-0.1,0-0.2,0-0.3c0.1,0,0.2-0.1,0.3-0.2c0.2,0.8,0.9,1.3,1.7,1.3c0.8,0,1.4-0.5,1.7-1.1c0.7,0.7,1.7,1.2,2.8,1.2     c2.1,0,3.9-1.7,3.9-3.9C37.8,54.2,36.1,52.4,34,52.4z M20.5,55.8c-1.3,0-2.4,1.1-2.4,2.4s1.1,2.4,2.4,2.4s2.4-1.1,2.4-2.4     S21.8,55.8,20.5,55.8z" fill="#212121"/><path d="M29.8,55.4c-1.2,0-2.1-1-2.1-2.1c0-1.2,0.9-2.1,2.1-2.1s2.1,1,2.1,2.1C31.9,54.5,31,55.4,29.8,55.4z      M31.9,56.8c-1.2,0-2.2,1-2.2,2.2s1,2.2,2.2,2.2c1.2,0,2.2-1,2.2-2.2S33.1,56.8,31.9,56.8z M39,49.9c-1,0-2,0.6-2.4,1.4     c-0.2-0.1-0.5-0.2-0.8-0.2c-0.9,0-1.6,0.7-1.6,1.6s0.7,1.6,1.6,1.6c0.3,0,0.6-0.1,0.8-0.2c0.5,0.9,1.4,1.4,2.4,1.4     c1.6,0,2.8-1.3,2.8-2.8S40.6,49.9,39,49.9z M11.4,56.8c0,0.9,0.7,1.6,1.6,1.6c0.9,0,1.6-0.7,1.6-1.6s-0.7-1.6-1.6-1.6     C12.1,55.2,11.4,56,11.4,56.8z" fill="#6D4C41"/></g><g><path d="M43,58c0,2.2-1.8,4-4,4c-2.2,0-4-1.8-4-4c0-2.2,1.8-4,4-4C41.2,54,43,55.8,43,58z M44,51.5     c-1.4,0-2.5,1.1-2.5,2.5s1.1,2.5,2.5,2.5s2.5-1.1,2.5-2.5S45.4,51.5,44,51.5z M35,52c-1.1,0-2,0.9-2,2s0.9,2,2,2s2-0.9,2-2     S36.1,52,35,52z M48,54.5c-0.8,0-1.5,0.7-1.5,1.5s0.7,1.5,1.5,1.5s1.5-0.7,1.5-1.5S48.8,54.5,48,54.5z M23,50.5     c-1.9,0-3.5,1.6-3.5,3.5c0,1.9,1.6,3.5,3.5,3.5s3.5-1.6,3.5-3.5C26.5,52.1,24.9,50.5,23,50.5z" fill="#3E2723"/><path d="M21,57c0,2.2-1.8,4-4,4s-4-1.8-4-4c0-2.2,1.8-4,4-4S21,54.8,21,57z M31,54c-1.7,0-3,1.3-3,3     c0,1.7,1.3,3,3,3c1.7,0,3-1.3,3-3C34,55.3,32.7,54,31,54z M27,52c-1.1,0-2,0.9-2,2s0.9,2,2,2c1.1,0,2-0.9,2-2S28.1,52,27,52z      M45,56c-1.7,0-3,1.3-3,3c0,1.7,1.3,3,3,3s3-1.3,3-3C48,57.3,46.7,56,45,56z" fill="#4E342E"/><path d="M14,59c0,1.1-0.9,2-2,2s-2-0.9-2-2s0.9-2,2-2S14,57.9,14,59z M23,56.5c-1.4,0-2.5,1.1-2.5,2.5     s1.1,2.5,2.5,2.5s2.5-1.1,2.5-2.5S24.4,56.5,23,56.5z M28,58.5c-0.8,0-1.5,0.7-1.5,1.5s0.7,1.5,1.5,1.5s1.5-0.7,1.5-1.5     S28.8,58.5,28,58.5z M34,58.5c-0.8,0-1.5,0.7-1.5,1.5s0.7,1.5,1.5,1.5s1.5-0.7,1.5-1.5S34.8,58.5,34,58.5z M51,57     c-1.1,0-2,0.9-2,2s0.9,2,2,2s2-0.9,2-2S52.1,57,51,57z" fill="#5D4037"/></g></g></g><g id="row_1"/></svg>